{"title":"Karavan.Smerti.1991.DVDRip.XviD.AC3-KinozalTV","uid":12288578,"size":1464870830,"categoryP":"video","categoryS":"movies","magnet":"?xt=urn:btih:891452e1048fa983dd9d73546326d1d48889e0c9&amp;dn=Karavan.Smerti.1991.DVDRip.XviD.AC3-KinozalTV&amp;tr=udp%3A%2F%2Ftracker.openbittorrent.com%3A80&amp;tr=udp%3A%2F%2Fopen.demonii.com%3A1337&amp;tr=udp%3A%2F%2Ftracker.coppersurfer.tk%3A6969&amp;tr=udp%3A%2F%2Fexodus.desync.com%3A6969","seeders":0,"leechers":0,"uploader":"TvTeam","files":4,"time":1440514517,"description":"------------------------------------------------------------------------\n\n &lt;a href=&quot; https://www.torrenting.com&quot; rel=&quot;nofollow&quot; target=&quot;_NEW&quot;&gt; https://www.torrenting.com&lt;/a&gt;\n\nSign up is OPEN - for time being. Come and have fun.\n\n------------------------------------------------------------------------Format                         : mkv\nFormat/Info                    : Audio Video Interleave\nFile size                      : 1.36 GiB\nDuration                       : 1h 14mn\nOverall bit rate               : 2 616 Kbps\nWriting application            : FairUse Wizard - http://fairusewizard.com\nWriting library                : The best and REALLY easy backup tool\n\nVideo\nID                             : 0\nFormat                         : MPEG-4 Visual\nFormat profile                 : Advanced Simple@L5\nFormat settings, BVOP          : 1\nFormat settings, QPel          : No\nFormat settings, GMC           : No warppoints\nFormat settings, Matrix        : Default (H.263)\nMuxing mode                    : Packed bitstream\nCodec ID                       : XVID\nCodec ID/Hint                  : XviD\nDuration                       : 1h 14mn\nBit rate                       : 2 286 Kbps\nWidth                          : 688 pixels\nHeight                         : 512 pixels\nDisplay aspect ratio           : 4:3\nFrame rate                     : 25.000 fps\nColor space                    : YUV\nChroma subsampling             : 4:2:0\nBit depth                      : 8 bits\nScan type                      : Progressive\nCompression mode               : Lossy\nBits/(Pixel*Frame)             : 0.260\nStream size                    : 1.19 GiB (87%)\nWriting library                : XviD 1.1.0 (UTC 2005-11-22)\n\nAudio\nID                             : 1\nFormat                         : AC-3\nFormat/Info                    : Audio Coding 3\nMode extension                 : CM (complete main)\nFormat settings, Endianness    : Big\nCodec ID                       : 2000\nDuration                       : 1h 14mn\nBit rate mode                  : Constant\nBit rate                       : 320 Kbps\nChannel(s)                     : 6 channels\nChannel(s)_Original            : 5 channels\nChannel positions              : Front: L C R, Side: L R\nSampling rate                  : 48.0 KHz\nBit depth                      : 16 bits\nCompression mode               : Lossy\nStream size                    : 171 MiB (12%)\nAlignment                      : Split accross interleaves\nInterleave, duration           : 40 ms (1.00 video frame)\nInterleave, preload duration   : 500 ms","torrent":{"xt":"urn:btih:891452e1048fa983dd9d73546326d1d48889e0c9","amp;dn":"Karavan.Smerti.1991.DVDRip.XviD.AC3-KinozalTV","amp;tr":["udp%3A%2F%2Ftracker.openbittorrent.com%3A80","udp%3A%2F%2Fopen.demonii.com%3A1337","udp%3A%2F%2Ftracker.coppersurfer.tk%3A6969","udp%3A%2F%2Fexodus.desync.com%3A6969"],"infoHash":"891452e1048fa983dd9d73546326d1d48889e0c9","infoHashBuffer":{"type":"Buffer","data":[137,20,82,225,4,143,169,131,221,157,115,84,99,38,209,212,136,137,224,201]},"announce":[],"urlList":[]}}